<svg viewBox="0 0 150 50" xmlns="http://www.w3.org/2000/svg">
  <defs>
    <linearGradient id="logoGrad" x1="0%" y1="0%" x2="100%" y2="100%">
      <stop offset="0%" style="stop-color:#ff6b6b"/>
      <stop offset="50%" style="stop-color:#4ecdc4"/>
      <stop offset="100%" style="stop-color:#45b7d1"/>
    </linearGradient>
  </defs>
  
  <!-- Chef hat -->
  <ellipse cx="20" cy="35" rx="15" ry="8" fill="#fff"/>
  <rect x="10" y="20" width="20" height="18" fill="#fff"/>
  <ellipse cx="20" cy="20" rx="10" ry="5" fill="#fff"/>
  
  <!-- Chef hat decoration -->
  <circle cx="15" cy="15" r="1.5" fill="#ff6b6b"/>
  <circle cx="20" cy="12" r="1.5" fill="#4ecdc4"/>
  <circle cx="25" cy="15" r="1.5" fill="#45b7d1"/>
  
  <!-- Cooking utensils -->
  <!-- Spoon -->
  <ellipse cx="32" cy="15" rx="2" ry="4" fill="#C0C0C0"/>
  <rect x="31" y="19" width="2" height="15" fill="#C0C0C0"/>
  
  <!-- Fork -->
  <rect x="36" y="12" width="0.5" height="5" fill="#C0C0C0"/>
  <rect x="37" y="12" width="0.5" height="5" fill="#C0C0C0"/>
  <rect x="38" y="12" width="0.5" height="5" fill="#C0C0C0"/>
  <rect x="35.5" y="17" width="3" height="17" fill="#C0C0C0"/>
  
  <!-- Text "GagRecipe" -->
  <text x="45" y="20" font-family="Arial, sans-serif" font-size="12" font-weight="bold" fill="url(#logoGrad)">Gag</text>
  <text x="45" y="35" font-family="Arial, sans-serif" font-size="12" font-weight="bold" fill="url(#logoGrad)">Recipe</text>
  
  <!-- Fun elements -->
  <circle cx="100" cy="15" r="2" fill="#ffeb3b"/>
  <circle cx="110" cy="25" r="1.5" fill="#ff6b6b"/>
  <circle cx="120" cy="35" r="2" fill="#4ecdc4"/>
  
  <!-- Smile -->
  <path d="M 105 40 Q 115 45 125 40" stroke="#ff6b6b" stroke-width="2" fill="none"/>
</svg>
