<svg width="200" height="200" viewBox="0 0 200 200" xmlns="http://www.w3.org/2000/svg">
  <defs>
    <pattern id="cookingPattern" x="0" y="0" width="200" height="200" patternUnits="userSpaceOnUse">
      <!-- Subtle grid lines -->
      <line x1="0" y1="0" x2="200" y2="0" stroke="rgba(102, 126, 234, 0.05)" stroke-width="1"/>
      <line x1="0" y1="0" x2="0" y2="200" stroke="rgba(102, 126, 234, 0.05)" stroke-width="1"/>
      
      <!-- Small cooking utensils -->
      <g opacity="0.1">
        <!-- Spoon -->
        <line x1="20" y1="20" x2="20" y2="35" stroke="#667eea" stroke-width="1"/>
        <ellipse cx="20" cy="35" rx="3" ry="1" fill="#667eea"/>
        
        <!-- Fork -->
        <line x1="180" y1="20" x2="180" y2="35" stroke="#764ba2" stroke-width="1"/>
        <path d="M 180 35 L 183 33 L 183 37 Z" fill="#764ba2"/>
        
        <!-- Pot -->
        <ellipse cx="100" y1="150" rx="15" ry="3" fill="#ff6b6b"/>
        <path d="M 85 150 Q 85 160 100 160 Q 115 160 115 150" fill="#ff6b6b"/>
        
        <!-- Leaf -->
        <ellipse cx="50" cy="50" rx="8" ry="4" fill="#4CAF50" transform="rotate(-30 50 50)"/>
        <ellipse cx="150" cy="50" rx="8" ry="4" fill="#4CAF50" transform="rotate(30 150 50)"/>
        
        <!-- Small circles (ingredients) -->
        <circle cx="30" cy="80" r="2" fill="#FFE66D"/>
        <circle cx="170" cy="80" r="2" fill="#95E1D3"/>
        <circle cx="100" cy="120" r="2" fill="#FF6B6B"/>
        <circle cx="60" cy="180" r="2" fill="#4ECDC4"/>
        <circle cx="140" cy="180" r="2" fill="#A8E6CF"/>
      </g>
      
      <!-- Floating particles -->
      <g opacity="0.15">
        <circle cx="40" cy="40" r="1" fill="#667eea"/>
        <circle cx="160" cy="40" r="1" fill="#764ba2"/>
        <circle cx="80" cy="100" r="1" fill="#ff6b6b"/>
        <circle cx="120" cy="100" r="1" fill="#4ecdc4"/>
        <circle cx="70" cy="160" r="1" fill="#ffe66d"/>
        <circle cx="130" cy="160" r="1" fill="#95e1d3"/>
      </g>
    </pattern>
  </defs>
  
  <!-- Background with pattern -->
  <rect width="200" height="200" fill="url(#cookingPattern)"/>
</svg>
