<svg width="200" height="200" viewBox="0 0 200 200" xmlns="http://www.w3.org/2000/svg">
  <defs>
    <linearGradient id="logoGradient" x1="0%" y1="0%" x2="100%" y2="100%">
      <stop offset="0%" style="stop-color:#667eea;stop-opacity:1" />
      <stop offset="100%" style="stop-color:#764ba2;stop-opacity:1" />
    </linearGradient>
    <linearGradient id="leafGradient" x1="0%" y1="0%" x2="100%" y2="100%">
      <stop offset="0%" style="stop-color:#4CAF50;stop-opacity:1" />
      <stop offset="100%" style="stop-color:#2E7D32;stop-opacity:1" />
    </linearGradient>
    <filter id="glow">
      <feGaussianBlur stdDeviation="3" result="coloredBlur"/>
      <feMerge> 
        <feMergeNode in="coloredBlur"/>
        <feMergeNode in="SourceGraphic"/>
      </feMerge>
    </filter>
  </defs>
  
  <!-- Background circle -->
  <circle cx="100" cy="100" r="90" fill="url(#logoGradient)" opacity="0.1"/>
  
  <!-- Main pot/cauldron -->
  <ellipse cx="100" cy="120" rx="35" ry="8" fill="url(#logoGradient)" opacity="0.8"/>
  <path d="M 65 120 Q 65 140 100 140 Q 135 140 135 120" fill="url(#logoGradient)" opacity="0.6"/>
  <ellipse cx="100" cy="140" rx="35" ry="8" fill="url(#logoGradient)" opacity="0.4"/>
  
  <!-- Pot handle -->
  <path d="M 135 120 Q 145 115 145 110 Q 145 105 135 100" stroke="url(#logoGradient)" stroke-width="3" fill="none" opacity="0.8"/>
  
  <!-- Steam/heat waves -->
  <path d="M 85 100 Q 90 90 95 100 Q 100 90 105 100 Q 110 90 115 100" stroke="url(#logoGradient)" stroke-width="2" fill="none" opacity="0.6"/>
  
  <!-- Growing plant -->
  <path d="M 100 140 Q 100 130 95 120 Q 90 110 85 100 Q 80 90 75 80" stroke="url(#leafGradient)" stroke-width="4" fill="none" opacity="0.8"/>
  <path d="M 100 140 Q 100 130 105 120 Q 110 110 115 100 Q 120 90 125 80" stroke="url(#leafGradient)" stroke-width="4" fill="none" opacity="0.8"/>
  
  <!-- Leaves -->
  <ellipse cx="75" cy="80" rx="8" ry="4" fill="url(#leafGradient)" opacity="0.9" transform="rotate(-30 75 80)"/>
  <ellipse cx="125" cy="80" rx="8" ry="4" fill="url(#leafGradient)" opacity="0.9" transform="rotate(30 125 80)"/>
  
  <!-- Small leaves on stem -->
  <ellipse cx="85" cy="100" rx="6" ry="3" fill="url(#leafGradient)" opacity="0.7" transform="rotate(-20 85 100)"/>
  <ellipse cx="115" cy="100" rx="6" ry="3" fill="url(#leafGradient)" opacity="0.7" transform="rotate(20 115 100)"/>
  
  <!-- Recipe ingredients floating -->
  <circle cx="70" cy="70" r="3" fill="#FF6B6B" opacity="0.8"/>
  <circle cx="130" cy="70" r="3" fill="#4ECDC4" opacity="0.8"/>
  <circle cx="60" cy="90" r="2" fill="#FFE66D" opacity="0.8"/>
  <circle cx="140" cy="90" r="2" fill="#95E1D3" opacity="0.8"/>
  
  <!-- Glow effect -->
  <circle cx="100" cy="100" r="95" fill="none" stroke="url(#logoGradient)" stroke-width="2" opacity="0.3" filter="url(#glow)"/>
</svg>
